<svg class="animated" id="freepik_stories-work-in-progress" xmlns="http://www.w3.org/2000/svg" viewBox="0 0 500 500" version="1.1" xmlns:xlink="http://www.w3.org/1999/xlink" xmlns:svgjs="http://svgjs.com/svgjs"><style>svg#freepik_stories-work-in-progress:not(.animated) .animable {opacity: 0;}svg#freepik_stories-work-in-progress.animated #freepik--background-simple--inject-63 {animation: 1s 1 forwards cubic-bezier(.36,-0.01,.5,1.38) zoomOut;animation-delay: 0s;}svg#freepik_stories-work-in-progress.animated #freepik--Clock--inject-63 {animation: 1s 1 forwards cubic-bezier(.36,-0.01,.5,1.38) zoomOut;animation-delay: 0s;}svg#freepik_stories-work-in-progress.animated #freepik--file-cabinet--inject-63 {animation: 1s 1 forwards cubic-bezier(.36,-0.01,.5,1.38) slideRight;animation-delay: 0s;}svg#freepik_stories-work-in-progress.animated #freepik--Board--inject-63 {animation: 1s 1 forwards cubic-bezier(.36,-0.01,.5,1.38) zoomOut;animation-delay: 0s;}svg#freepik_stories-work-in-progress.animated #freepik--Papers--inject-63 {animation: 1s 1 forwards cubic-bezier(.36,-0.01,.5,1.38) slideDown;animation-delay: 0s;}svg#freepik_stories-work-in-progress.animated #freepik--Device--inject-63 {animation: 1s 1 forwards cubic-bezier(.36,-0.01,.5,1.38) fadeIn;animation-delay: 0s;}svg#freepik_stories-work-in-progress.animated #freepik--Character--inject-63 {animation: 1s 1 forwards cubic-bezier(.36,-0.01,.5,1.38) zoomIn;animation-delay: 0s;}svg#freepik_stories-work-in-progress.animated #freepik--Cup--inject-63 {animation: 1s 1 forwards cubic-bezier(.36,-0.01,.5,1.38) slideUp;animation-delay: 0s;}svg#freepik_stories-work-in-progress.animated #freepik--Table--inject-63 {animation: 1s 1 forwards cubic-bezier(.36,-0.01,.5,1.38) lightSpeedRight;animation-delay: 0s;}            @keyframes zoomOut {                0% {                    opacity: 0;                    transform: scale(1.5);                }                100% {                    opacity: 1;                    transform: scale(1);                }            }                    @keyframes slideRight {                0% {                    opacity: 0;                    transform: translateX(30px);                }                100% {                    opacity: 1;                    transform: translateX(0);                }            }                    @keyframes slideDown {                0% {                    opacity: 0;                    transform: translateY(-30px);                }                100% {                    opacity: 1;                    transform: translateY(0);                }            }                    @keyframes fadeIn {                0% {                    opacity: 0;                }                100% {                    opacity: 1;                }            }                    @keyframes zoomIn {                0% {                    opacity: 0;                    transform: scale(0.5);                }                100% {                    opacity: 1;                    transform: scale(1);                }            }                    @keyframes slideUp {                0% {                    opacity: 0;                    transform: translateY(30px);                }                100% {                    opacity: 1;                    transform: inherit;                }            }                    @keyframes lightSpeedRight {              from {                transform: translate3d(50%, 0, 0) skewX(-20deg);                opacity: 0;              }              60% {                transform: skewX(10deg);                opacity: 1;              }              80% {                transform: skewX(-2deg);              }              to {                opacity: 1;                transform: translate3d(0, 0, 0);              }            }        </style><g id="freepik--background-simple--inject-63" class="animable" style="transform-origin: 256.463px 265.998px;"><path d="M72.5,427.56H451c6.21-7.43,42.35-54.45,26.16-125.91-17.69-78-28.1-79.09-106.14-128S266,83.12,176.47,116.42,83.86,212.16,88,262.1,35,350.55,31.83,381.77C29.32,406.83,51,423.16,72.5,427.56Z" style="fill: rgb(63, 160, 55); transform-origin: 256.463px 265.998px;" id="el4qv26oo6n3l" class="animable"></path><g id="el8sie8ubs6x4"><path d="M72.5,427.56H451c6.21-7.43,42.35-54.45,26.16-125.91-17.69-78-28.1-79.09-106.14-128S266,83.12,176.47,116.42,83.86,212.16,88,262.1,35,350.55,31.83,381.77C29.32,406.83,51,423.16,72.5,427.56Z" style="fill: rgb(255, 255, 255); opacity: 0.7; transform-origin: 256.463px 265.998px;" class="animable"></path></g></g><g id="freepik--Clock--inject-63" class="animable" style="transform-origin: 99.8px 110.35px;"><g id="el0log3yo69mp9"><g style="opacity: 0.5; transform-origin: 99.8px 110.35px;" class="animable"><circle cx="99.8" cy="110.35" r="50" style="fill: none; stroke: rgb(0, 0, 0); stroke-miterlimit: 10; transform-origin: 99.8px 110.35px;" id="elzoaamsfxuxf" class="animable"></circle><circle cx="99.8" cy="110.35" r="45" style="fill: none; stroke: rgb(0, 0, 0); stroke-miterlimit: 10; transform-origin: 99.8px 110.35px;" id="el2egmd5pmdni" class="animable"></circle><polyline points="82.29 121.58 99.8 110.35 80.99 79.58" style="fill: none; stroke: rgb(0, 0, 0); stroke-miterlimit: 10; transform-origin: 90.395px 100.58px;" id="el1im4etgpu3q" class="animable"></polyline></g></g></g><g id="freepik--file-cabinet--inject-63" class="animable" style="transform-origin: 105.867px 299.33px;"><g id="elnkc5l3w8tv9"><g style="opacity: 0.5; transform-origin: 106.47px 331.615px;" class="animable"><rect x="47.47" y="236.28" width="118" height="190.67" style="fill: none; stroke: rgb(0, 0, 0); stroke-miterlimit: 10; transform-origin: 106.47px 331.615px;" id="ele2etldet2c5" class="animable"></rect><rect x="52.13" y="246.94" width="108.67" height="66" style="fill: none; stroke: rgb(0, 0, 0); stroke-miterlimit: 10; transform-origin: 106.465px 279.94px;" id="elumlzqkrtf6" class="animable"></rect><rect x="96.13" y="272.94" width="16.67" height="15.33" style="fill: none; stroke: rgb(0, 0, 0); stroke-miterlimit: 10; transform-origin: 104.465px 280.605px;" id="elk9n9zbd7aon" class="animable"></rect><rect x="52.13" y="322.94" width="108.67" height="66" style="fill: none; stroke: rgb(0, 0, 0); stroke-miterlimit: 10; transform-origin: 106.465px 355.94px;" id="eljp3zhclkbrn" class="animable"></rect><rect x="96.13" y="348.94" width="16.67" height="15.33" style="fill: none; stroke: rgb(0, 0, 0); stroke-miterlimit: 10; transform-origin: 104.465px 356.605px;" id="elfr6ncrghj6" class="animable"></rect><rect x="52.13" y="399.61" width="108.67" height="26.67" style="fill: none; stroke: rgb(0, 0, 0); stroke-miterlimit: 10; transform-origin: 106.465px 412.945px;" id="elg4nio2ufh9" class="animable"></rect></g></g><g id="elrqksls9pxri"><g style="opacity: 0.5; transform-origin: 70.1616px 203.965px;" class="animable"><polygon points="83.94 214.63 53.39 214.63 57.21 236.22 80.12 236.22 83.94 214.63" style="fill: none; stroke: rgb(0, 0, 0); stroke-miterlimit: 10; transform-origin: 68.665px 225.425px;" id="eljcub1ijgxrc" class="animable"></polygon><path d="M72.55,181.89c0,4.35-4.3,9-4.3,9s-6.6-4.68-6.6-9,5.45-10.18,5.45-10.18S72.55,177.53,72.55,181.89Z" style="fill: none; stroke: rgb(0, 0, 0); stroke-miterlimit: 10; transform-origin: 67.1px 181.3px;" id="elaic78encp2w" class="animable"></path><path d="M57,194c2.79,3.34,2.48,9.69,2.48,9.69s-8.06.64-10.85-2.7-2.34-11.31-2.34-11.31S54.23,190.69,57,194Z" style="fill: none; stroke: rgb(0, 0, 0); stroke-miterlimit: 10; transform-origin: 52.8767px 196.71px;" id="el4rnbvooss7d" class="animable"></path><path d="M77.88,184.9c3-3.13,10.15-2.15,10.15-2.15s.71,6.61-2.32,9.74-11,3.51-11,3.51S74.85,188,77.88,184.9Z" style="fill: none; stroke: rgb(0, 0, 0); stroke-miterlimit: 10; transform-origin: 81.4061px 189.302px;" id="ele4f1s44ci2e" class="animable"></path><path d="M82.61,208.32c-4.07-1.54-6.92-7.22-6.92-7.22s6.72-4.51,10.79-3,7.58,8.7,7.58,8.7S86.68,209.87,82.61,208.32Z" style="fill: none; stroke: rgb(0, 0, 0); stroke-miterlimit: 10; transform-origin: 84.875px 203.274px;" id="el8gnwfih8j7" class="animable"></path><line x1="67.96" y1="214.29" x2="67.96" y2="180.45" style="fill: none; stroke: rgb(0, 0, 0); stroke-miterlimit: 10; transform-origin: 67.96px 197.37px;" id="elx4yhirbf0m" class="animable"></line><line x1="67.67" y1="202.53" x2="84.59" y2="187.91" style="fill: none; stroke: rgb(0, 0, 0); stroke-miterlimit: 10; transform-origin: 76.13px 195.22px;" id="elmssd26unc3r" class="animable"></line><line x1="67.96" y1="210.27" x2="50.76" y2="196.8" style="fill: none; stroke: rgb(0, 0, 0); stroke-miterlimit: 10; transform-origin: 59.36px 203.535px;" id="elwns4ed8nhan" class="animable"></line><line x1="71.97" y1="199.38" x2="85.16" y2="204.54" style="fill: none; stroke: rgb(0, 0, 0); stroke-miterlimit: 10; transform-origin: 78.565px 201.96px;" id="elknrk5hid1zh" class="animable"></line></g></g></g><g id="freepik--Board--inject-63" class="animable" style="transform-origin: 358.465px 205.84px;"><g id="elunu2fkuxt5k"><rect x="243.8" y="129.27" width="229.33" height="153.14" style="fill: none; stroke: rgb(0, 0, 0); stroke-miterlimit: 10; opacity: 0.5; transform-origin: 358.465px 205.84px;" class="animable"></rect></g><g id="el7s536uojrcs"><rect x="246.88" y="131.33" width="223.18" height="149.03" style="fill: none; stroke: rgb(0, 0, 0); stroke-miterlimit: 10; opacity: 0.5; transform-origin: 358.47px 205.845px;" class="animable"></rect></g><g id="el3kk63zutvfa"><path d="M273.89,153.65s2.45,13.19,2.45,17.1v13.67s9.77.49,17.58,0,17.1-5.37,17.1-5.37-3.42-13.19-3.42-16.61-2-11.72-2-11.72Z" style="fill: rgb(255, 255, 255); stroke: rgb(0, 0, 0); stroke-miterlimit: 10; opacity: 0.3; transform-origin: 292.455px 167.679px;" class="animable"></path></g><g id="el6ynz1379kf3"><path d="M274.87,235.72s-1.46,11.23-1.46,16.12-2.45,12.7-2.45,12.7,11.73,4.4,14.66,4.4,15.63-1,15.63-1l1.95-28.82S278.78,236.7,274.87,235.72Z" style="fill: rgb(255, 255, 255); stroke: rgb(0, 0, 0); stroke-miterlimit: 10; opacity: 0.3; transform-origin: 287.08px 252.33px;" class="animable"></path></g><g id="elzb9ft04x3ll"><path d="M329.1,175.14,335,202s7.33.49,15.14.49,21-7.33,21-7.33-6.35-12.7-6.35-16.12-2-13.19-2-13.19-20,6.35-23,6.84S329.1,175.14,329.1,175.14Z" style="fill: rgb(255, 255, 255); stroke: rgb(0, 0, 0); stroke-miterlimit: 10; opacity: 0.3; transform-origin: 350.12px 184.17px;" class="animable"></path></g><g id="elht72e8qex2a"><path d="M373.06,167.82s-1.46,17.58-1.46,19.54-.49,9.77-.49,9.77a139.33,139.33,0,0,0,15.14,1.46c5.38,0,14.66-.49,14.66-.49s-.49-17.09.49-18.56,1.46-9.28,1.46-9.28S375,168.3,373.06,167.82Z" style="fill: rgb(255, 255, 255); stroke: rgb(0, 0, 0); stroke-miterlimit: 10; opacity: 0.3; transform-origin: 386.985px 183.205px;" class="animable"></path></g><g id="elv1dak5ow4ye"><path d="M383.81,206.9v11.72c0,1.95-1,16.12-1,16.12s12.7.49,17.59,0,14.65-3.42,14.65-3.42l-1.46-15.63-1-10.75S389.18,208.36,383.81,206.9Z" style="fill: rgb(255, 255, 255); stroke: rgb(0, 0, 0); stroke-miterlimit: 10; opacity: 0.3; transform-origin: 398.93px 219.949px;" class="animable"></path></g><g id="elne6g1gbugs"><path d="M457.58,141l-11.24.49h-5.86v8.3c0,2.44-.49,10.26-.49,11.72s7.82,2.45,11.24,2.45h12.21l.49-23.94Z" style="fill: rgb(255, 255, 255); stroke: rgb(0, 0, 0); stroke-miterlimit: 10; opacity: 0.3; transform-origin: 451.96px 151.99px;" class="animable"></path></g><g id="elmwxhe4s1n4"><g style="opacity: 0.5; transform-origin: 439.745px 201.035px;" class="animable"><line x1="429.24" y1="193.71" x2="450.25" y2="193.71" style="fill: none; stroke: rgb(0, 0, 0); stroke-miterlimit: 10; transform-origin: 439.745px 193.71px;" id="elmf5ormpn9xm" class="animable"></line><line x1="429.24" y1="198.59" x2="450.25" y2="198.59" style="fill: none; stroke: rgb(0, 0, 0); stroke-miterlimit: 10; transform-origin: 439.745px 198.59px;" id="elxfysmuqb5eo" class="animable"></line><line x1="429.24" y1="203.48" x2="450.25" y2="203.48" style="fill: none; stroke: rgb(0, 0, 0); stroke-miterlimit: 10; transform-origin: 439.745px 203.48px;" id="el9lv4sx5drbd" class="animable"></line><line x1="429.24" y1="208.36" x2="450.25" y2="208.36" style="fill: none; stroke: rgb(0, 0, 0); stroke-miterlimit: 10; transform-origin: 439.745px 208.36px;" id="el8hqc7p0d4xx" class="animable"></line></g></g><g id="el67gwimlvb3a"><g style="opacity: 0.5; transform-origin: 355.475px 140.46px;" class="animable"><line x1="320.79" y1="138.02" x2="390.16" y2="138.02" style="fill: none; stroke: rgb(0, 0, 0); stroke-miterlimit: 10; transform-origin: 355.475px 138.02px;" id="el2ey3hsi86su" class="animable"></line><line x1="320.79" y1="142.9" x2="390.16" y2="142.9" style="fill: none; stroke: rgb(0, 0, 0); stroke-miterlimit: 10; transform-origin: 355.475px 142.9px;" id="eliofc0nblwmq" class="animable"></line></g></g><g id="el8qiwssa0xcp"><g style="opacity: 0.5; transform-origin: 402.13px 251.84px;" class="animable"><line x1="391.63" y1="244.51" x2="412.63" y2="244.51" style="fill: none; stroke: rgb(0, 0, 0); stroke-miterlimit: 10; transform-origin: 402.13px 244.51px;" id="el7p3axxhxf56" class="animable"></line><line x1="391.63" y1="249.4" x2="412.63" y2="249.4" style="fill: none; stroke: rgb(0, 0, 0); stroke-miterlimit: 10; transform-origin: 402.13px 249.4px;" id="elxmqryjn8yxi" class="animable"></line><line x1="391.63" y1="254.28" x2="412.63" y2="254.28" style="fill: none; stroke: rgb(0, 0, 0); stroke-miterlimit: 10; transform-origin: 402.13px 254.28px;" id="els93v5car3" class="animable"></line><line x1="391.63" y1="259.17" x2="412.63" y2="259.17" style="fill: none; stroke: rgb(0, 0, 0); stroke-miterlimit: 10; transform-origin: 402.13px 259.17px;" id="elhcbvh0zbvff" class="animable"></line></g></g><g id="elk1srpzv7llb"><g style="opacity: 0.5; transform-origin: 271.695px 219.6px;" class="animable"><line x1="261.19" y1="212.27" x2="282.2" y2="212.27" style="fill: none; stroke: rgb(0, 0, 0); stroke-miterlimit: 10; transform-origin: 271.695px 212.27px;" id="eltdfh3r4kcpm" class="animable"></line><line x1="261.19" y1="217.16" x2="282.2" y2="217.16" style="fill: none; stroke: rgb(0, 0, 0); stroke-miterlimit: 10; transform-origin: 271.695px 217.16px;" id="elwx3ofs9k4am" class="animable"></line><line x1="261.19" y1="222.04" x2="282.2" y2="222.04" style="fill: none; stroke: rgb(0, 0, 0); stroke-miterlimit: 10; transform-origin: 271.695px 222.04px;" id="elkb4ludizmyf" class="animable"></line><line x1="261.19" y1="226.93" x2="282.2" y2="226.93" style="fill: none; stroke: rgb(0, 0, 0); stroke-miterlimit: 10; transform-origin: 271.695px 226.93px;" id="elwmuhmdfqp3s" class="animable"></line></g></g><g id="elpj3quafvij"><g style="opacity: 0.5; transform-origin: 419.715px 158.045px;" class="animable"><line x1="409.21" y1="150.72" x2="430.22" y2="150.72" style="fill: none; stroke: rgb(0, 0, 0); stroke-miterlimit: 10; transform-origin: 419.715px 150.72px;" id="elmdxoesj65a" class="animable"></line><line x1="409.21" y1="155.6" x2="430.22" y2="155.6" style="fill: none; stroke: rgb(0, 0, 0); stroke-miterlimit: 10; transform-origin: 419.715px 155.6px;" id="el4myyoa8gh6" class="animable"></line><line x1="409.21" y1="160.49" x2="430.22" y2="160.49" style="fill: none; stroke: rgb(0, 0, 0); stroke-miterlimit: 10; transform-origin: 419.715px 160.49px;" id="elczxsdkiieei" class="animable"></line><line x1="409.21" y1="165.37" x2="430.22" y2="165.37" style="fill: none; stroke: rgb(0, 0, 0); stroke-miterlimit: 10; transform-origin: 419.715px 165.37px;" id="elni5xu27glog" class="animable"></line></g></g><g id="elrcrtprkkhng"><path d="M332.3,197.37l-12.05,3.44,3.1,2.68c-5.63,3.71-17.56,10.06-25.37,3.61-10.47-8.65-7.65-16.12-7.53-16.44l-.92-.37-.93-.38c-.15.36-3.56,9.09,8.11,18.73a14.39,14.39,0,0,0,9.45,3.27c7.29,0,14.81-4.34,18.78-7l3.92,3.39Z" style="opacity: 0.5; transform-origin: 310.162px 200.912px;" class="animable"></path></g><g id="elthcdqjezih"><polygon points="453.91 176.81 450.43 165.21 444.05 174.49 447.59 175.32 443.91 188.55 445.84 189.09 449.54 175.78 453.91 176.81" style="opacity: 0.5; transform-origin: 448.91px 177.15px;" class="animable"></polygon></g><g id="eln4fwy3w57uf"><path d="M293.92,155.11A2.93,2.93,0,1,0,291,158,2.93,2.93,0,0,0,293.92,155.11Z" style="fill: rgb(255, 255, 255); stroke: rgb(0, 0, 0); stroke-miterlimit: 10; opacity: 0.3; transform-origin: 290.99px 155.07px;" class="animable"></path></g><g id="el1dk3jcrp99i"><path d="M347.66,173.68a2.93,2.93,0,1,0-2.93,2.93A2.93,2.93,0,0,0,347.66,173.68Z" style="fill: rgb(63, 160, 55); stroke: rgb(0, 0, 0); stroke-miterlimit: 10; opacity: 0.3; transform-origin: 344.73px 173.68px;" class="animable"></path></g><g id="elrrlv1ayhlh9"><circle cx="389.18" cy="169.28" r="2.93" style="fill: rgb(255, 255, 255); stroke: rgb(0, 0, 0); stroke-miterlimit: 10; opacity: 0.3; transform-origin: 389.18px 169.28px;" class="animable"></circle></g><g id="elesbgu1ilzh"><circle cx="398.95" cy="209.83" r="2.93" style="fill: rgb(255, 255, 255); stroke: rgb(0, 0, 0); stroke-miterlimit: 10; opacity: 0.3; transform-origin: 398.95px 209.83px;" class="animable"></circle></g><g id="elqinjghbcun"><path d="M293.92,241.09A2.93,2.93,0,1,0,291,244,2.93,2.93,0,0,0,293.92,241.09Z" style="fill: rgb(63, 160, 55); stroke: rgb(0, 0, 0); stroke-miterlimit: 10; opacity: 0.3; transform-origin: 290.99px 241.07px;" class="animable"></path></g><g id="el4j43mbllmlx"><path d="M455.13,141a2.93,2.93,0,1,0-2.93,2.93A2.93,2.93,0,0,0,455.13,141Z" style="fill: rgb(63, 160, 55); stroke: rgb(0, 0, 0); stroke-miterlimit: 10; opacity: 0.3; transform-origin: 452.2px 141px;" class="animable"></path></g></g><g id="freepik--Papers--inject-63" class="animable" style="transform-origin: 362.92px 362.665px;"><path d="M360.22,408.78v-3.09l2.38-.5-2.38-.6v-.85l2.15-1-2.15-.64V389.4H357.6v-2.61l1.21-.1-1.21-.57v-1l3,.44-2-2.45-1-1.47v-.56l3.21-.2s-1.82-1.11-3.21-2.11V368.19h3.21s-1.77-.84-3.21-1.56V362.7H284.29v6.41L281,370.42l3.26,1.45v.75c-1,.58-2.73,1.63-3,2.26-.44.89-1.34,2.89-1.34,2.89s2.23-.44,2.9-.67a2.32,2.32,0,0,1,1.48.19v.12L281.7,380l2.59,1.14v8.79h5.76v.61a9.62,9.62,0,0,0-1.22.38,34.34,34.34,0,0,0-3.79,2.23l3.34-.22-1.56,2.45,3.23.2v12.15h-7.33v4.42a4.23,4.23,0,0,0-1.47.61,9,9,0,0,0-1.43,1.29c-1,1.07-1.91,2.28-1.91,2.28l3.79-1.12-2,2.68,1.56.44-1.34,2,2.81.2V425H356v-3l2.56.1-.9-.44,2.23-.67-2.23-2.23-.66-2.67-1-.17v-7.16Z" style="fill: rgb(181, 181, 181); transform-origin: 320.255px 393.85px;" id="elesk8uq1tjzu" class="animable"></path><line x1="287.49" y1="369.53" x2="332.06" y2="369.53" style="fill: none; stroke: rgb(38, 50, 56); stroke-miterlimit: 10; transform-origin: 309.775px 369.53px;" id="el4d5hkxhhr8a" class="animable"></line><line x1="287.94" y1="373.32" x2="313.34" y2="373.32" style="fill: none; stroke: rgb(38, 50, 56); stroke-miterlimit: 10; transform-origin: 300.64px 373.32px;" id="el1wx88rdfzxj" class="animable"></line><line x1="351.68" y1="378.66" x2="307.1" y2="378.66" style="fill: none; stroke: rgb(38, 50, 56); stroke-miterlimit: 10; transform-origin: 329.39px 378.66px;" id="el0kxj7p7ohirk" class="animable"></line><line x1="292.17" y1="390.03" x2="352.35" y2="390.03" style="fill: none; stroke: rgb(38, 50, 56); stroke-miterlimit: 10; transform-origin: 322.26px 390.03px;" id="el7gn5xitpbbp" class="animable"></line><line x1="291.06" y1="382.23" x2="334.74" y2="382.23" style="fill: none; stroke: rgb(38, 50, 56); stroke-miterlimit: 10; transform-origin: 312.9px 382.23px;" id="el7c22zgdfcuc" class="animable"></line><line x1="353.46" y1="394.49" x2="321.37" y2="394.49" style="fill: none; stroke: rgb(38, 50, 56); stroke-miterlimit: 10; transform-origin: 337.415px 394.49px;" id="elr5ksawcnm9" class="animable"></line><line x1="352.12" y1="400.51" x2="293.29" y2="400.51" style="fill: none; stroke: rgb(38, 50, 56); stroke-miterlimit: 10; transform-origin: 322.705px 400.51px;" id="el9o2rxlg6ksk" class="animable"></line><line x1="304.87" y1="405.63" x2="339.64" y2="405.63" style="fill: none; stroke: rgb(38, 50, 56); stroke-miterlimit: 10; transform-origin: 322.255px 405.63px;" id="elihy1mx548p" class="animable"></line><line x1="353.91" y1="408.75" x2="295.96" y2="408.75" style="fill: none; stroke: rgb(38, 50, 56); stroke-miterlimit: 10; transform-origin: 324.935px 408.75px;" id="elecniqdrz3sr" class="animable"></line><line x1="287.27" y1="417" x2="329.17" y2="417" style="fill: none; stroke: rgb(38, 50, 56); stroke-miterlimit: 10; transform-origin: 308.22px 417px;" id="eldst2wjn15rh" class="animable"></line><line x1="325.16" y1="412.76" x2="294.4" y2="412.76" style="fill: none; stroke: rgb(38, 50, 56); stroke-miterlimit: 10; transform-origin: 309.78px 412.76px;" id="elobeoc8rz2gj" class="animable"></line><line x1="299.08" y1="419.45" x2="343.65" y2="419.45" style="fill: none; stroke: rgb(38, 50, 56); stroke-miterlimit: 10; transform-origin: 321.365px 419.45px;" id="elv8324bjgob" class="animable"></line><line x1="350.34" y1="412.32" x2="338.3" y2="412.32" style="fill: none; stroke: rgb(38, 50, 56); stroke-miterlimit: 10; transform-origin: 344.32px 412.32px;" id="elh1qhq2vydu" class="animable"></line><path d="M380.22,346.41v-3.09l2.38-.5-2.38-.6v-.85l2.15-1-2.15-.65V327H377.6v-2.61l1.21-.1-1.21-.57v-1l3,.45-2-2.46-1-1.47v-.55l3.21-.2s-1.82-1.12-3.21-2.12V305.82h3.21s-1.77-.84-3.21-1.55v-3.94H304.29v6.42l-3.26,1.3,3.26,1.45v.75c-1,.58-2.73,1.64-3,2.26-.44.89-1.34,2.9-1.34,2.9s2.23-.45,2.9-.67a2.26,2.26,0,0,1,1.48.18V315l-2.59,2.59,2.59,1.14v8.79h5.76v.62a8.23,8.23,0,0,0-1.22.38,33.11,33.11,0,0,0-3.79,2.22l3.34-.22L306.82,333l3.23.2v12.15h-7.33v4.43a4,4,0,0,0-1.47.61,9.38,9.38,0,0,0-1.43,1.28c-1,1.07-1.91,2.28-1.91,2.28l3.79-1.11-2,2.67,1.56.45-1.34,2,2.81.2v4.47H376v-3l2.56.11-.9-.45,2.23-.67-2.23-2.23-.66-2.67-1-.17v-7.16Z" style="fill: rgb(181, 181, 181); transform-origin: 340.255px 331.48px;" id="eli0n6rskc3bb" class="animable"></path><line x1="307.49" y1="307.16" x2="352.06" y2="307.16" style="fill: none; stroke: rgb(38, 50, 56); stroke-miterlimit: 10; transform-origin: 329.775px 307.16px;" id="elr2w1vbatxl" class="animable"></line><line x1="307.94" y1="310.95" x2="333.34" y2="310.95" style="fill: none; stroke: rgb(38, 50, 56); stroke-miterlimit: 10; transform-origin: 320.64px 310.95px;" id="elupg86tzv5bf" class="animable"></line><line x1="371.68" y1="316.3" x2="327.1" y2="316.3" style="fill: none; stroke: rgb(38, 50, 56); stroke-miterlimit: 10; transform-origin: 349.39px 316.3px;" id="el8ldzh12b79x" class="animable"></line><line x1="312.17" y1="327.66" x2="372.35" y2="327.66" style="fill: none; stroke: rgb(38, 50, 56); stroke-miterlimit: 10; transform-origin: 342.26px 327.66px;" id="elmtijvwk5bxl" class="animable"></line><line x1="311.06" y1="319.86" x2="354.74" y2="319.86" style="fill: none; stroke: rgb(38, 50, 56); stroke-miterlimit: 10; transform-origin: 332.9px 319.86px;" id="elr63jdymddmr" class="animable"></line><line x1="373.46" y1="332.12" x2="341.37" y2="332.12" style="fill: none; stroke: rgb(38, 50, 56); stroke-miterlimit: 10; transform-origin: 357.415px 332.12px;" id="elkxcidsdftma" class="animable"></line><line x1="372.12" y1="338.14" x2="313.29" y2="338.14" style="fill: none; stroke: rgb(38, 50, 56); stroke-miterlimit: 10; transform-origin: 342.705px 338.14px;" id="el468a1vbfq8l" class="animable"></line><line x1="324.87" y1="343.26" x2="359.64" y2="343.26" style="fill: none; stroke: rgb(38, 50, 56); stroke-miterlimit: 10; transform-origin: 342.255px 343.26px;" id="elxax2deyrlz" class="animable"></line><line x1="373.91" y1="346.38" x2="315.96" y2="346.38" style="fill: none; stroke: rgb(38, 50, 56); stroke-miterlimit: 10; transform-origin: 344.935px 346.38px;" id="els3xdlsinmx" class="animable"></line><line x1="307.27" y1="354.63" x2="349.17" y2="354.63" style="fill: none; stroke: rgb(38, 50, 56); stroke-miterlimit: 10; transform-origin: 328.22px 354.63px;" id="el3ua0rh4gqrc" class="animable"></line><line x1="345.16" y1="350.4" x2="314.4" y2="350.4" style="fill: none; stroke: rgb(38, 50, 56); stroke-miterlimit: 10; transform-origin: 329.78px 350.4px;" id="eleutji53zfkp" class="animable"></line><line x1="319.08" y1="357.08" x2="363.65" y2="357.08" style="fill: none; stroke: rgb(38, 50, 56); stroke-miterlimit: 10; transform-origin: 341.365px 357.08px;" id="el4vi1ebeymyo" class="animable"></line><line x1="370.34" y1="349.95" x2="358.3" y2="349.95" style="fill: none; stroke: rgb(38, 50, 56); stroke-miterlimit: 10; transform-origin: 364.32px 349.95px;" id="elpw23t0x27eh" class="animable"></line><path d="M427.15,408.78v-3.09l2.38-.5-2.38-.6v-.85l2.16-1-2.16-.64V389.4h-2.62v-2.61l1.21-.1-1.21-.57v-1l3,.44-2-2.45-1-1.47v-.56l3.22-.2s-1.82-1.11-3.22-2.11V368.19h3.22s-1.78-.84-3.22-1.56V362.7H351.22v6.41L348,370.42l3.26,1.45v.75c-1,.58-2.72,1.63-3,2.26-.44.89-1.33,2.89-1.33,2.89s2.23-.44,2.89-.67a2.32,2.32,0,0,1,1.48.19v.12L348.63,380l2.59,1.14v8.79H357v.61a10.15,10.15,0,0,0-1.22.38,35.35,35.35,0,0,0-3.79,2.23l3.35-.22-1.56,2.45,3.22.2v12.15h-7.33v4.42a4.23,4.23,0,0,0-1.47.61,9.44,9.44,0,0,0-1.43,1.29c-1,1.07-1.91,2.28-1.91,2.28l3.79-1.12-2,2.68,1.56.44-1.33,2,2.8.2V425H423v-3l2.56.1-.89-.44,2.23-.67-2.23-2.23-.67-2.67-1-.17v-7.16Z" style="fill: rgb(181, 181, 181); stroke: rgb(38, 50, 56); stroke-miterlimit: 10; transform-origin: 387.195px 393.85px;" id="ell8amsv7lqm" class="animable"></path><line x1="354.42" y1="369.53" x2="399" y2="369.53" style="fill: none; stroke: rgb(38, 50, 56); stroke-miterlimit: 10; transform-origin: 376.71px 369.53px;" id="elkbpbi0daegn" class="animable"></line><line x1="354.87" y1="373.32" x2="380.28" y2="373.32" style="fill: none; stroke: rgb(38, 50, 56); stroke-miterlimit: 10; transform-origin: 367.575px 373.32px;" id="elyw6q038t0f" class="animable"></line><line x1="418.61" y1="378.66" x2="374.04" y2="378.66" style="fill: none; stroke: rgb(38, 50, 56); stroke-miterlimit: 10; transform-origin: 396.325px 378.66px;" id="els0454lb7goc" class="animable"></line><line x1="359.11" y1="390.03" x2="419.28" y2="390.03" style="fill: none; stroke: rgb(38, 50, 56); stroke-miterlimit: 10; transform-origin: 389.195px 390.03px;" id="elupdpy285ao" class="animable"></line><line x1="357.99" y1="382.23" x2="401.67" y2="382.23" style="fill: none; stroke: rgb(38, 50, 56); stroke-miterlimit: 10; transform-origin: 379.83px 382.23px;" id="elpn5yju2v1ha" class="animable"></line><line x1="420.39" y1="394.49" x2="388.3" y2="394.49" style="fill: none; stroke: rgb(38, 50, 56); stroke-miterlimit: 10; transform-origin: 404.345px 394.49px;" id="el9eg05f7ebp" class="animable"></line><line x1="419.06" y1="400.51" x2="360.22" y2="400.51" style="fill: none; stroke: rgb(38, 50, 56); stroke-miterlimit: 10; transform-origin: 389.64px 400.51px;" id="el249jobgtwgl" class="animable"></line><line x1="371.81" y1="405.63" x2="406.58" y2="405.63" style="fill: none; stroke: rgb(38, 50, 56); stroke-miterlimit: 10; transform-origin: 389.195px 405.63px;" id="elbptv0v6ct5c" class="animable"></line><line x1="420.84" y1="408.75" x2="362.89" y2="408.75" style="fill: none; stroke: rgb(38, 50, 56); stroke-miterlimit: 10; transform-origin: 391.865px 408.75px;" id="el6cftszodd6f" class="animable"></line><line x1="354.2" y1="417" x2="396.1" y2="417" style="fill: none; stroke: rgb(38, 50, 56); stroke-miterlimit: 10; transform-origin: 375.15px 417px;" id="elk3b1nzd1x5" class="animable"></line><line x1="392.09" y1="412.76" x2="361.33" y2="412.76" style="fill: none; stroke: rgb(38, 50, 56); stroke-miterlimit: 10; transform-origin: 376.71px 412.76px;" id="el09p8wnvvi169" class="animable"></line><line x1="366.01" y1="419.45" x2="410.59" y2="419.45" style="fill: none; stroke: rgb(38, 50, 56); stroke-miterlimit: 10; transform-origin: 388.3px 419.45px;" id="elojs8twioy9" class="animable"></line><line x1="417.27" y1="412.32" x2="405.24" y2="412.32" style="fill: none; stroke: rgb(38, 50, 56); stroke-miterlimit: 10; transform-origin: 411.255px 412.32px;" id="elr7zlksjwwcc" class="animable"></line><path d="M445.55,408.78v-3.09l2.38-.5-2.38-.6v-.85l2.16-1-2.16-.64V389.4h-2.62v-2.61l1.21-.1-1.21-.57v-1l3,.44-2-2.45-1-1.47v-.56l3.22-.2s-1.82-1.11-3.22-2.11V368.19h3.22s-1.78-.84-3.22-1.56V362.7H369.62v6.41l-3.26,1.31,3.26,1.45v.75c-1,.58-2.72,1.63-3,2.26-.44.89-1.33,2.89-1.33,2.89s2.23-.44,2.89-.67a2.32,2.32,0,0,1,1.48.19v.12L367,380l2.59,1.14v8.79h5.76v.61a10.15,10.15,0,0,0-1.22.38,35.35,35.35,0,0,0-3.79,2.23l3.35-.22-1.56,2.45,3.22.2v12.15h-7.33v4.42a4.23,4.23,0,0,0-1.47.61,9.44,9.44,0,0,0-1.43,1.29c-1,1.07-1.91,2.28-1.91,2.28l3.79-1.12-2,2.68,1.56.44-1.33,2,2.8.2V425h73.31v-3l2.56.1-.89-.44,2.23-.67L443,418.78l-.67-2.67-1-.17v-7.16Z" style="fill: rgb(255, 255, 255); stroke: rgb(38, 50, 56); stroke-miterlimit: 10; transform-origin: 405.57px 393.85px;" id="eldkd62j0rltp" class="animable"></path><line x1="372.82" y1="369.53" x2="417.4" y2="369.53" style="fill: none; stroke: rgb(38, 50, 56); stroke-miterlimit: 10; transform-origin: 395.11px 369.53px;" id="elz1is9s2dofq" class="animable"></line><line x1="373.27" y1="373.32" x2="398.68" y2="373.32" style="fill: none; stroke: rgb(38, 50, 56); stroke-miterlimit: 10; transform-origin: 385.975px 373.32px;" id="elwxtw92wxlac" class="animable"></line><line x1="437.01" y1="378.66" x2="392.44" y2="378.66" style="fill: none; stroke: rgb(38, 50, 56); stroke-miterlimit: 10; transform-origin: 414.725px 378.66px;" id="el46tyvyej4m3" class="animable"></line><line x1="377.5" y1="390.03" x2="437.68" y2="390.03" style="fill: none; stroke: rgb(38, 50, 56); stroke-miterlimit: 10; transform-origin: 407.59px 390.03px;" id="ellmo5hoyg9bn" class="animable"></line><line x1="376.39" y1="382.23" x2="420.07" y2="382.23" style="fill: none; stroke: rgb(38, 50, 56); stroke-miterlimit: 10; transform-origin: 398.23px 382.23px;" id="elbd9l02zhrta" class="animable"></line><line x1="438.79" y1="394.49" x2="406.7" y2="394.49" style="fill: none; stroke: rgb(38, 50, 56); stroke-miterlimit: 10; transform-origin: 422.745px 394.49px;" id="elg67x6y3nglj" class="animable"></line><line x1="437.46" y1="400.51" x2="378.62" y2="400.51" style="fill: none; stroke: rgb(38, 50, 56); stroke-miterlimit: 10; transform-origin: 408.04px 400.51px;" id="el967cjno14dm" class="animable"></line><line x1="390.21" y1="405.63" x2="424.98" y2="405.63" style="fill: none; stroke: rgb(38, 50, 56); stroke-miterlimit: 10; transform-origin: 407.595px 405.63px;" id="elt7m1darlk9" class="animable"></line><line x1="439.24" y1="408.75" x2="381.29" y2="408.75" style="fill: none; stroke: rgb(38, 50, 56); stroke-miterlimit: 10; transform-origin: 410.265px 408.75px;" id="ela2qxe9gmkdf" class="animable"></line><line x1="372.6" y1="417" x2="414.5" y2="417" style="fill: none; stroke: rgb(38, 50, 56); stroke-miterlimit: 10; transform-origin: 393.55px 417px;" id="elhnktu2b2w75" class="animable"></line><line x1="410.49" y1="412.76" x2="379.73" y2="412.76" style="fill: none; stroke: rgb(38, 50, 56); stroke-miterlimit: 10; transform-origin: 395.11px 412.76px;" id="elcd2z2q28k5" class="animable"></line><line x1="384.41" y1="419.45" x2="428.99" y2="419.45" style="fill: none; stroke: rgb(38, 50, 56); stroke-miterlimit: 10; transform-origin: 406.7px 419.45px;" id="elt7vbizv6cr8" class="animable"></line><line x1="435.67" y1="412.32" x2="423.64" y2="412.32" style="fill: none; stroke: rgb(38, 50, 56); stroke-miterlimit: 10; transform-origin: 429.655px 412.32px;" id="el5bnqpahgecx" class="animable"></line><path d="M445.55,347.44v-3.09l2.38-.5-2.38-.59v-.85l2.16-1-2.16-.65V328.07h-2.62v-2.62l1.21-.1-1.21-.57v-1l3,.44-2-2.45-1-1.48v-.55l3.22-.2s-1.82-1.11-3.22-2.11V306.86h3.22s-1.78-.85-3.22-1.56v-3.94H369.62v6.42l-3.26,1.3,3.26,1.46v.75c-1,.58-2.72,1.63-3,2.25-.44.89-1.33,2.9-1.33,2.9s2.23-.45,2.89-.67a2.32,2.32,0,0,1,1.48.19v.11l-2.59,2.6,2.59,1.13v8.79h5.76v.62a10.15,10.15,0,0,0-1.22.38,33.71,33.71,0,0,0-3.79,2.23l3.35-.23-1.56,2.46,3.22.2V346.4h-7.33v4.42a4.23,4.23,0,0,0-1.47.61,9.44,9.44,0,0,0-1.43,1.29,29.74,29.74,0,0,0-1.91,2.28l3.79-1.12-2,2.68,1.56.44-1.33,2,2.8.2v4.47h73.31v-3l2.56.1-.89-.45,2.23-.66L443,357.45l-.67-2.68-1-.16v-7.17Z" style="fill: rgb(255, 255, 255); stroke: rgb(38, 50, 56); stroke-miterlimit: 10; transform-origin: 405.605px 332.515px;" id="el0fnauqxh6e9" class="animable"></path><line x1="372.82" y1="308.19" x2="417.4" y2="308.19" style="fill: none; stroke: rgb(38, 50, 56); stroke-miterlimit: 10; transform-origin: 395.11px 308.19px;" id="elr85vigz9d2j" class="animable"></line><line x1="373.27" y1="311.98" x2="398.68" y2="311.98" style="fill: none; stroke: rgb(38, 50, 56); stroke-miterlimit: 10; transform-origin: 385.975px 311.98px;" id="eluviacbnfe6l" class="animable"></line><line x1="437.01" y1="317.33" x2="392.44" y2="317.33" style="fill: none; stroke: rgb(38, 50, 56); stroke-miterlimit: 10; transform-origin: 414.725px 317.33px;" id="elq93fzyej2of" class="animable"></line><line x1="377.5" y1="328.7" x2="437.68" y2="328.7" style="fill: none; stroke: rgb(38, 50, 56); stroke-miterlimit: 10; transform-origin: 407.59px 328.7px;" id="elbzmld2rcw35" class="animable"></line><line x1="376.39" y1="320.9" x2="420.07" y2="320.9" style="fill: none; stroke: rgb(38, 50, 56); stroke-miterlimit: 10; transform-origin: 398.23px 320.9px;" id="elu0bs6vbesle" class="animable"></line><line x1="438.79" y1="333.15" x2="406.7" y2="333.15" style="fill: none; stroke: rgb(38, 50, 56); stroke-miterlimit: 10; transform-origin: 422.745px 333.15px;" id="elbv39nn45r9u" class="animable"></line><line x1="437.46" y1="339.17" x2="378.62" y2="339.17" style="fill: none; stroke: rgb(38, 50, 56); stroke-miterlimit: 10; transform-origin: 408.04px 339.17px;" id="elg3nq3ef6gut" class="animable"></line><line x1="390.21" y1="344.3" x2="424.98" y2="344.3" style="fill: none; stroke: rgb(38, 50, 56); stroke-miterlimit: 10; transform-origin: 407.595px 344.3px;" id="elmkwbxvr7nmi" class="animable"></line><line x1="439.24" y1="347.42" x2="381.29" y2="347.42" style="fill: none; stroke: rgb(38, 50, 56); stroke-miterlimit: 10; transform-origin: 410.265px 347.42px;" id="elyab2ncwck7" class="animable"></line><line x1="372.6" y1="355.66" x2="414.5" y2="355.66" style="fill: none; stroke: rgb(38, 50, 56); stroke-miterlimit: 10; transform-origin: 393.55px 355.66px;" id="el6s09y80xc3c" class="animable"></line><line x1="410.49" y1="351.43" x2="379.73" y2="351.43" style="fill: none; stroke: rgb(38, 50, 56); stroke-miterlimit: 10; transform-origin: 395.11px 351.43px;" id="elzjk47sxj9ib" class="animable"></line><line x1="384.41" y1="358.12" x2="428.99" y2="358.12" style="fill: none; stroke: rgb(38, 50, 56); stroke-miterlimit: 10; transform-origin: 406.7px 358.12px;" id="elb5tjnlp4tu" class="animable"></line><line x1="435.67" y1="350.98" x2="423.64" y2="350.98" style="fill: none; stroke: rgb(38, 50, 56); stroke-miterlimit: 10; transform-origin: 429.655px 350.98px;" id="elj513f6orw8r" class="animable"></line></g><g id="freepik--Device--inject-63" class="animable" style="transform-origin: 296.326px 350.351px;"><polygon points="314.26 423.92 228.76 423.92 228.76 419.36 314.26 414.81 314.26 423.92" style="fill: rgb(255, 255, 255); stroke: rgb(38, 50, 56); stroke-miterlimit: 10; transform-origin: 271.51px 419.365px;" id="el4hvp70d1h9u" class="animable"></polygon><path d="M363,407l-22-54.54-3.72,1.51v.89L359,408.6A8.31,8.31,0,0,1,351.28,420H322.45v4.35h28.83A12.68,12.68,0,0,0,363,407Z" style="fill: rgb(255, 255, 255); stroke: rgb(38, 50, 56); stroke-miterlimit: 10; transform-origin: 343.171px 388.405px;" id="el3pes4cie12p" class="animable"></path><g id="el3brb9obat8h"><rect x="337.27" y="276.3" width="6.84" height="128.24" style="fill: rgb(255, 255, 255); stroke: rgb(38, 50, 56); stroke-miterlimit: 10; transform-origin: 340.69px 340.42px; transform: rotate(6.88deg);" class="animable"></rect></g><path d="M323.17,424h-37v-4.35a9.18,9.18,0,0,1,8.25-9.14l18.67-1.89a9.18,9.18,0,0,1,10.1,9.13Z" style="fill: rgb(255, 255, 255); stroke: rgb(38, 50, 56); stroke-miterlimit: 10; transform-origin: 304.68px 416.287px;" id="elzkvzp6oewrm" class="animable"></path></g><g id="freepik--Character--inject-63" class="animable" style="transform-origin: 171.096px 323.485px;"><path d="M158.82,244.4s-7.89-19.09-15.36-20.75-39,14.11-30.3,28.64,17.85,13.69,26.15,10S158.82,244.4,158.82,244.4Z" style="fill: rgb(38, 50, 56); stroke: rgb(38, 50, 56); stroke-miterlimit: 10; transform-origin: 135.237px 244.056px;" id="el1ynyh2wu66h" class="animable"></path><path d="M124.78,230.7s-8.3-2.9-12.45-2.9-5,13.28-5,13.28S110.26,228.21,124.78,230.7Z" style="fill: rgb(38, 50, 56); stroke: rgb(38, 50, 56); stroke-miterlimit: 10; transform-origin: 116.055px 234.44px;" id="elxit6gb8zyn" class="animable"></path><path d="M214.43,258.93s4.57,6.22,5.81,11.62-2.07,11.2-.83,15.77,7.06,8.71,6.64,11.62-8.71,7.47-8.71,7.47-7.06,17-10,18.26S194.51,322,190,319.94s-10.38-1.66-10.38-1.66l-27-13.7s2.91-5.4-.41-13.28-5-21.17,15.35-34.45S214.43,258.93,214.43,258.93Z" style="fill: rgb(255, 255, 255); stroke: rgb(38, 50, 56); stroke-miterlimit: 10; transform-origin: 188.132px 287.708px;" id="el605tbr8pk18" class="animable"></path><path d="M210.7,304.58a4.41,4.41,0,0,0-5.4-1.66" style="fill: none; stroke: rgb(38, 50, 56); stroke-miterlimit: 10; transform-origin: 208px 303.579px;" id="el1g2ggyieqxh" class="animable"></path><path d="M214,284.24c0,2.07-.65,3.74-1.45,3.74s-1.46-1.67-1.46-3.74.65-3.73,1.46-3.73S214,282.18,214,284.24Z" style="fill: rgb(38, 50, 56); transform-origin: 212.545px 284.245px;" id="elddrm41qwvmf" class="animable"></path><path d="M209.87,273.87a3.81,3.81,0,0,1,5.81.41" style="fill: none; stroke: rgb(38, 50, 56); stroke-miterlimit: 10; transform-origin: 212.775px 273.498px;" id="elazab0tc6el" class="animable"></path><ellipse cx="212.98" cy="280.92" rx="7.26" ry="11.62" style="fill: none; stroke: rgb(38, 50, 56); stroke-miterlimit: 10; transform-origin: 212.98px 280.92px;" id="elrkfb80tar9c" class="animable"></ellipse><line x1="205.72" y1="280.92" x2="173.34" y2="284.24" style="fill: rgb(255, 255, 255); stroke: rgb(38, 50, 56); stroke-miterlimit: 10; transform-origin: 189.53px 282.58px;" id="elhad3pr31nt" class="animable"></line><path d="M166.7,292.13s-7.88,8.72-12.45,8.72-13.28-5.82-17.43-12,4.15-22,8.72-31.13,12.86-24.49,29.88-27.81,23.66-2.07,38.18,5.4,12.87,18.26,10.38,21.58a38.84,38.84,0,0,1-6.23,6.23s9.13-5,12.45-3.32,3.33,3.73,3.33,3.73-10.38.42-11.63.42-5.39,2.07-5.39,2.07-8.72,2.08-13.28.83S192.44,261,192,266s-6.64,13.7-9.13,14.53-6.23,1.24-9.55,3.73S166.7,292.13,166.7,292.13Z" style="fill: rgb(38, 50, 56); stroke: rgb(38, 50, 56); stroke-miterlimit: 10; transform-origin: 184.611px 264.512px;" id="elkggqy6d2ka" class="animable"></path><path d="M176.25,288.39s-5.81-12-11.62-7.05.41,17.84,2.9,19.09,7.47-2.08,7.47-2.08.42,5.4,2.08,7.89" style="fill: rgb(255, 255, 255); stroke: rgb(38, 50, 56); stroke-miterlimit: 10; transform-origin: 169.652px 293.191px;" id="elxk4cqydwf3d" class="animable"></path><path d="M143.05,318.28s7-7.06,7-11.62,2.49-8.31,18.26-.83S189.53,322,186.21,324.5s-10.38,5-12,6.64-7.47,9.55-7.47,9.55S156.74,318.28,143.05,318.28Z" style="fill: rgb(63, 160, 55); stroke: rgb(38, 50, 56); stroke-miterlimit: 10; transform-origin: 165.096px 321.132px;" id="elevzuapdsvj" class="animable"></path><path d="M160.24,303.38s-3.52.71-2.81,3.17a8.46,8.46,0,0,1,0,4.56l-2.11,3.17" style="fill: none; stroke: rgb(38, 50, 56); stroke-miterlimit: 10; transform-origin: 157.78px 308.83px;" id="elq1grkhg4ec" class="animable"></path><path d="M168.36,305.83s-3.91,4.23-3.56,5.63,1.06,3.52-.35,4.22a29.26,29.26,0,0,1-3.86,1.41" style="fill: none; stroke: rgb(38, 50, 56); stroke-miterlimit: 10; transform-origin: 164.475px 311.46px;" id="el8svqs4jtix" class="animable"></path><path d="M169.72,322.12c-.73,1.07-1.4,2-1.4,2" style="fill: none; stroke: rgb(38, 50, 56); stroke-miterlimit: 10; transform-origin: 169.02px 323.12px;" id="elpns5yhcnqp" class="animable"></path><path d="M175.7,310.76s.7,3.16-.71,5.27-3.16,2.11-3.51,3.16" style="fill: none; stroke: rgb(38, 50, 56); stroke-miterlimit: 10; transform-origin: 173.677px 314.975px;" id="el3zvdf0hzfvn" class="animable"></path><path d="M183.43,316.38a29.93,29.93,0,0,1-2.46,5.27c-1.06,1.41-4.92,1.06-5.63,2.81a11.28,11.28,0,0,1-2.81,3.52" style="fill: none; stroke: rgb(38, 50, 56); stroke-miterlimit: 10; transform-origin: 177.98px 322.18px;" id="el1pb3jncypog" class="animable"></path><path d="M264.18,382.37c-3.09-1.23-11.74-2.47-11.74-2.47" style="fill: none; stroke: rgb(38, 50, 56); stroke-miterlimit: 10; transform-origin: 258.31px 381.135px;" id="elv338d64yyi" class="animable"></path><path d="M248.73,378.66s6.8-1.85,11.12,0" style="fill: none; stroke: rgb(38, 50, 56); stroke-miterlimit: 10; transform-origin: 254.29px 378.249px;" id="elso1hdurxik" class="animable"></path><path d="M262.8,393s3.67,6.33,4.67,8.33,1.33,3,.33,3-4.67-1.66-5-3.66a8.18,8.18,0,0,0-1-3s1.88,7.33,1.33,7.66c-2.17,1.33-3.66-1-3.66-1l-2.67-8s-1,4-1.33,5-2.34-1.66-2.34-3.66a45.22,45.22,0,0,1,.34-4.67l-2-1.67s3-3,6.33-3S262.8,393,262.8,393Z" style="fill: rgb(255, 255, 255); stroke: rgb(38, 50, 56); stroke-miterlimit: 10; transform-origin: 259.938px 397.035px;" id="elp9lyj5ibd4d" class="animable"></path><path d="M211.47,383l1.3-.09c5.75-.38,28.57-1.91,30-1.91,1.67,0,11.33,5.33,11.33,5.33a46,46,0,0,1,9,.34c3.34.66,6.34,4.66,7.67,6s5.67,3,3.33,3.66-3.33,1-4.66.67-6.67-4-6.67-4l-8.67-1.33s-8,4.33-9,4.66,1.34,2.67,3.67,4.34,6,4,5.67,6.66-1.34,2.34-4,0-5.34-3.66-9.34-6.33a90.2,90.2,0,0,1-10.33-8.67l-2-2s-23.33,7.67-31.33,10A168.31,168.31,0,0,1,175.13,405c-5,.67-14.66-1.33-17.33-3.33s-9.67-8.34-9.67-8.34l12-24s14.34,13.34,20,14.67S211.47,383,211.47,383Z" style="fill: rgb(255, 255, 255); stroke: rgb(38, 50, 56); stroke-miterlimit: 10; transform-origin: 211.455px 389.268px;" id="elac41ysqdw7e" class="animable"></path><path d="M180.13,384c-5.66-1.33-20-14.67-20-14.67l-12,24s7,6.34,9.67,8.34,12.33,4,17.33,3.33a171,171,0,0,0,20.29-4.1c.18-1.53.32-3.17.38-4.9.13-3.78,0-8.06-.19-11.87C189.17,384.5,182.66,384.63,180.13,384Z" style="fill: rgb(63, 160, 55); stroke: rgb(38, 50, 56); stroke-miterlimit: 10; transform-origin: 171.991px 387.231px;" id="ela2ybor0qbic" class="animable"></path><path d="M171.83,344.59a33.16,33.16,0,0,0-6.23-19.21,20.41,20.41,0,0,0-7.61-6.69c-13.86-6.3-23.6-1.73-32.38,10-17.43,23.25-29.35,50.86-34,62.26C81.8,414.71,80,423.28,80,423.28h65.58s-3.32-8.3-3.32-10.37,3.32-6.23,3.32-6.23,19.92-7.06,23.65-17.85C171.94,380.89,172,356.78,171.83,344.59Z" style="fill: rgb(63, 160, 55); stroke: rgb(38, 50, 56); stroke-miterlimit: 10; transform-origin: 125.943px 369.567px;" id="elo1ouxlt176g" class="animable"></path><path d="M268.5,350.24A107.9,107.9,0,0,1,284,354.57" style="fill: none; stroke: rgb(38, 50, 56); stroke-miterlimit: 10; transform-origin: 276.25px 352.405px;" id="elu2y0te0vx3p" class="animable"></path><path d="M278.39,348.39a43.74,43.74,0,0,1,10.51,6.18" style="fill: none; stroke: rgb(38, 50, 56); stroke-miterlimit: 10; transform-origin: 283.645px 351.48px;" id="elr44n6ml1ce" class="animable"></path><path d="M129.35,361.44s20.34,55.62,25.73,57.28,10.79-.83,13.28-2.49,74.71-52.71,74.71-52.71S255.94,371,258.43,371s7.47,7.47,8.71,10,2.49,3.73,2.91,1.24-2.91-7.88-3.74-9.54a23.89,23.89,0,0,1-1.24-2.91,13.62,13.62,0,0,1,4.15,1.25c1.24.83,5.39,6.22,6.64,7.88s4.15,3.32,4.15.83-4.57-7.05-5.4-9.13a5.8,5.8,0,0,0-2.49-2.9s7.89,1.24,10,2.07,3.33,5.81,5.82,6.23-1.25-5-2.08-7.47-11.21-5.81-11.21-5.81,6.64-.83,8.72-.83S290,366,291.22,366s1.24-1.25-2.08-3.74-9.13-5-11.62-5a45.19,45.19,0,0,1-7.47-.83c-2.49-.41-21.17-4.15-24.9-4.15s-59.77,26.15-59.77,26.15l-3.63-3.23a.44.44,0,0,0-.25-.11l-.61-.07a8.67,8.67,0,0,0-5.87,1.66c-.3.2-.6.17-.85-.33-.83-1.66-6.22-34.86-9.13-41.92s-12-22.82-27.8-13.69" style="fill: rgb(255, 255, 255); stroke: rgb(38, 50, 56); stroke-miterlimit: 10; transform-origin: 210.662px 368.618px;" id="elmea59u4vvwr" class="animable"></path><path d="M129.35,361.44s20.34,55.62,25.73,57.28,10.79-.83,13.28-2.49c1.32-.88,22-15.49,41.3-29.11l-7.18-16.56c-9.65,4.42-17.1,7.9-17.1,7.9l-3.63-3.23a.44.44,0,0,0-.25-.11l-.61-.07a8.67,8.67,0,0,0-5.87,1.66c-.3.2-.6.17-.85-.33-.83-1.66-6.22-34.86-9.13-41.92s-12-22.82-27.8-13.69" style="fill: rgb(63, 160, 55); stroke: rgb(38, 50, 56); stroke-miterlimit: 10; transform-origin: 169.505px 368.633px;" id="el6o8z9muhlri" class="animable"></path><path d="M174.23,377.73a87.34,87.34,0,0,1-10.42,10.71" style="fill: none; stroke: rgb(38, 50, 56); stroke-miterlimit: 10; transform-origin: 169.02px 383.085px;" id="eljpa4tnsy4vp" class="animable"></path><path d="M171.85,380.41s-6.84,2.38-12.5,3.87" style="fill: none; stroke: rgb(38, 50, 56); stroke-miterlimit: 10; transform-origin: 165.6px 382.345px;" id="elwqxwcnivtw" class="animable"></path><path d="M80,423.28,68.55,322.88a9.2,9.2,0,0,0-10.43-8.07h0a9.2,9.2,0,0,0-7.83,10.26l12.48,98.37Z" style="fill: rgb(38, 50, 56); stroke: rgb(38, 50, 56); stroke-miterlimit: 10; transform-origin: 65.1088px 369.08px;" id="elkexto9m8urq" class="animable"></path></g><g id="freepik--Cup--inject-63" class="animable" style="transform-origin: 143.708px 406.65px;"><path d="M134.91,396.92a5.1,5.1,0,0,0-6.1-.88c-3.49,1.92-4.19,9.77-2.62,15.35s8.72,2.44,8.72,2.44l-.17-3.66s-5.93.69-6.28-2.44-.52-7.15,3-7.15,4.54.87,4.54.87Z" style="fill: rgb(255, 255, 255); stroke: rgb(38, 50, 56); stroke-miterlimit: 10; transform-origin: 130.698px 405.056px;" id="elil9vamx0vqk" class="animable"></path><rect x="134.33" y="390.08" width="27.69" height="33.14" style="fill: rgb(255, 255, 255); stroke: rgb(38, 50, 56); stroke-miterlimit: 10; transform-origin: 148.175px 406.65px;" id="elkfgbtw1do6" class="animable"></rect></g><g id="freepik--Table--inject-63" class="animable" style="transform-origin: 245.06px 427.895px;"><rect x="29.98" y="423.04" width="430.16" height="9.71" style="fill: rgb(38, 50, 56); stroke: rgb(38, 50, 56); stroke-miterlimit: 10; transform-origin: 245.06px 427.895px;" id="elc4rpx7wmjr" class="animable"></rect></g><defs>     <filter id="active" height="200%">         <feMorphology in="SourceAlpha" result="DILATED" operator="dilate" radius="2"></feMorphology>                <feFlood flood-color="#32DFEC" flood-opacity="1" result="PINK"></feFlood>        <feComposite in="PINK" in2="DILATED" operator="in" result="OUTLINE"></feComposite>        <feMerge>            <feMergeNode in="OUTLINE"></feMergeNode>            <feMergeNode in="SourceGraphic"></feMergeNode>        </feMerge>    </filter>    <filter id="hover" height="200%">        <feMorphology in="SourceAlpha" result="DILATED" operator="dilate" radius="2"></feMorphology>                <feFlood flood-color="#ff0000" flood-opacity="0.5" result="PINK"></feFlood>        <feComposite in="PINK" in2="DILATED" operator="in" result="OUTLINE"></feComposite>        <feMerge>            <feMergeNode in="OUTLINE"></feMergeNode>            <feMergeNode in="SourceGraphic"></feMergeNode>        </feMerge>            <feColorMatrix type="matrix" values="0   0   0   0   0                0   1   0   0   0                0   0   0   0   0                0   0   0   1   0 "></feColorMatrix>    </filter></defs></svg>